<?xml version="1.0" standalone="no"?>
<!DOCTYPE svg PUBLIC "-//W3C//DTD SVG 20010904//EN"
 "http://www.w3.org/TR/2001/REC-SVG-20010904/DTD/svg10.dtd">
<svg version="1.0" xmlns="http://www.w3.org/2000/svg"
 width="1024.000000pt" height="1024.000000pt" viewBox="0 0 1024.000000 1024.000000"
 preserveAspectRatio="xMidYMid meet">
<metadata>
Created by potrace 1.11, written by Peter Selinger 2001-2013
</metadata>
<g transform="translate(0.000000,1024.000000) scale(0.100000,-0.100000)"
fill="#000000" stroke="none">
<path d="M6908 9465 c-1 -2 -64 -6 -138 -9 -129 -6 -158 -8 -260 -21 -428 -55
-816 -222 -1200 -518 -140 -108 -1506 -1472 -1569 -1567 -9 -13 -26 -35 -38
-48 -82 -89 -264 -400 -322 -550 -10 -26 -22 -56 -26 -67 -5 -11 -9 -22 -10
-25 -1 -3 -7 -17 -13 -32 -18 -43 -70 -228 -86 -304 -23 -109 -24 -119 -52
-349 -6 -47 -6 -381 0 -440 9 -98 31 -260 41 -305 3 -14 8 -38 10 -55 17 -94
74 -282 125 -410 100 -252 289 -553 467 -745 23 -25 52 -57 65 -72 65 -75 364
-312 446 -353 66 -33 138 -33 195 0 44 26 441 402 518 490 116 135 166 458 88
569 -12 17 -55 58 -96 91 -79 64 -233 219 -267 269 -12 17 -33 47 -48 66 -40
53 -124 236 -147 321 -58 216 -61 432 -10 651 12 50 28 106 35 125 8 18 14 35
14 38 -2 13 69 137 124 220 50 75 167 198 703 735 354 355 668 663 699 685 31
22 62 45 68 51 26 25 238 128 285 139 9 3 41 11 71 19 217 59 500 51 698 -18
23 -9 45 -15 47 -15 3 0 43 -18 88 -40 268 -130 516 -395 624 -666 77 -194 96
-451 52 -685 -27 -142 -115 -342 -201 -457 -29 -37 -54 -70 -57 -73 -3 -3 -26
-27 -50 -55 -25 -27 -91 -99 -147 -160 -130 -140 -160 -178 -175 -222 -10 -31
-8 -119 3 -163 13 -46 50 -169 59 -190 5 -14 12 -39 15 -55 3 -17 10 -50 15
-75 6 -25 13 -54 15 -65 8 -36 23 -119 29 -165 4 -24 8 -47 10 -50 3 -5 10
-76 20 -215 8 -102 15 -149 26 -160 5 -5 9 -17 9 -26 0 -26 73 -95 132 -126
67 -34 172 -38 228 -9 50 26 830 809 898 901 4 6 25 33 48 60 53 65 134 187
193 289 53 93 123 237 121 250 -1 5 2 12 7 15 9 6 67 173 102 296 30 105 64
297 78 435 10 97 9 422 0 525 -48 509 -221 937 -542 1341 -90 112 -295 319
-395 399 -41 33 -80 65 -86 70 -6 6 -20 16 -30 22 -11 7 -46 32 -79 55 -55 38
-252 158 -260 158 -2 0 -50 22 -107 48 -199 94 -460 169 -684 197 -27 4 -60 8
-74 11 -14 2 -81 6 -150 10 -69 3 -130 7 -137 9 -6 2 -13 2 -15 0z"/>
<path d="M5738 6647 c-31 -14 -111 -83 -229 -197 -275 -265 -286 -276 -322
-338 -12 -21 -24 -39 -28 -42 -12 -10 -50 -125 -62 -189 -15 -82 -14 -185 3
-245 13 -48 24 -61 140 -158 348 -291 497 -604 484 -1018 -4 -169 -8 -198 -40
-310 -53 -185 -147 -349 -283 -493 -88 -93 -1210 -1210 -1256 -1251 -22 -20
-43 -36 -46 -36 -3 0 -19 -11 -35 -25 -77 -66 -328 -169 -464 -190 -25 -4 -54
-9 -65 -12 -41 -8 -283 -4 -350 6 -151 24 -334 91 -428 155 -21 14 -42 26 -47
26 -6 0 -10 3 -10 8 0 4 -17 18 -38 32 -51 34 -218 202 -275 277 -104 137
-182 321 -213 503 -13 82 -8 350 9 435 22 110 61 226 105 310 32 61 87 150
102 165 3 3 18 23 34 45 17 22 58 69 91 105 34 36 87 92 117 125 31 33 74 80
98 105 106 114 116 189 51 395 -22 72 -45 153 -51 180 -7 28 -14 59 -16 70
-16 67 -34 170 -39 221 -4 32 -8 61 -10 64 -2 3 -6 46 -10 95 -17 230 -22 250
-79 320 -73 89 -217 127 -314 83 -31 -14 -142 -118 -395 -372 -297 -297 -448
-453 -502 -518 -73 -88 -194 -262 -249 -358 -37 -65 -136 -270 -136 -281 0 -5
-4 -17 -9 -27 -37 -67 -97 -275 -129 -442 -35 -182 -46 -301 -46 -505 0 -275
17 -410 88 -705 37 -153 141 -408 223 -548 24 -41 43 -76 43 -79 0 -4 66 -103
93 -138 13 -17 91 -121 117 -155 30 -40 61 -74 149 -165 268 -276 520 -453
866 -606 137 -61 444 -144 605 -163 25 -3 68 -8 95 -12 112 -13 395 -19 500
-9 135 12 183 18 285 35 89 15 102 18 165 34 202 51 444 147 590 233 94 57
270 172 291 191 10 10 46 38 79 62 86 62 1422 1399 1529 1529 103 125 179 236
260 375 31 54 56 99 56 101 0 2 18 43 40 90 43 92 115 298 125 354 3 19 8 38
10 42 15 23 59 276 71 409 9 101 10 417 0 510 -34 344 -122 648 -272 941 -48
93 -185 315 -203 329 -4 3 -34 41 -68 85 -92 122 -253 280 -403 395 -74 58
-137 107 -140 110 -3 4 -30 18 -59 33 -68 34 -129 35 -193 4z"/>
</g>
</svg>
